# xmcd
#
# Track frame offsets:
#        150
#        30887
#        62387
#        92837
#        126562
#        173087
#
# Disc length: 2506 seconds
#
# Revision: 0
# Processed by: cddbd v1.5.1PL2 Copyright (c) Steve Scherf et al.
# Submitted via: ExactAudioCopy v0.95a5
#
DISCID=4309c806
DTITLE=Jackie McLean and Tina Brooks - Street Singer
DYEAR=1900
DGENRE=Jazz
TTITLE0=Melonae's Dance
TTITLE1=Appointment In Ghana
TTITLE2=Medina
TTITLE3=Isle Of Java
TTITLE4=Street Singer
TTITLE5=A Balld For Doll
EXTD=
EXTT0=
EXTT1=
EXTT2=
EXTT3=
EXTT4=
EXTT5=
PLAYORDER=
